<svg xmlns="http://www.w3.org/2000/svg" viewBox="0 0 220 48" width="220" height="48" role="img" aria-label="Unmesh Desai">
  <defs>
    <style>
      @import url('https://fonts.googleapis.com/css2?family=DM+Sans:wght@500;700&amp;display=swap');
    </style>
  </defs>

  <!-- Antler / Horn Icon -->
  <g transform="translate(4, 4)">
    <!-- Left horn -->
    <path
      d="M 20 34 C 20 34, 8 30, 7 22 C 6 14, 10 7, 12 5 C 12.5 4.2, 13 4, 13.2 4.5 C 13.5 5.5, 12 10, 12.5 15 C 13 20, 17 24, 20 26"
      stroke="#1A56DB" stroke-width="3.2" stroke-linecap="round" stroke-linejoin="round" fill="none"
    />
    <!-- Right horn -->
    <path
      d="M 20 34 C 20 34, 32 30, 33 22 C 34 14, 30 7, 28 5 C 27.5 4.2, 27 4, 26.8 4.5 C 26.5 5.5, 28 10, 27.5 15 C 27 20, 23 24, 20 26"
      stroke="#1A56DB" stroke-width="3.2" stroke-linecap="round" stroke-linejoin="round" fill="none"
    />
    <!-- Center stem -->
    <path
      d="M 20 26 C 20 28, 20 31, 20 34"
      stroke="#1A56DB" stroke-width="3.2" stroke-linecap="round" fill="none"
    />
    <!-- Tip dots -->
    <circle cx="12.5" cy="4.5" r="1.4" fill="#1A56DB" />
    <circle cx="27.5" cy="4.5" r="1.4" fill="#1A56DB" />
  </g>

  <!-- Wordmark -->
  <text x="54" y="31" font-family="'DM Sans', system-ui, sans-serif" font-size="22" font-weight="500" fill="#0A0A0A" letter-spacing="-0.3">Unmesh</text>
  <text x="54" y="31" font-family="'DM Sans', system-ui, sans-serif" font-size="20" font-weight="300" fill="rgba(0,0,0,0.2)" letter-spacing="-0.3" dx="88"> | </text>
  <text x="54" y="31" font-family="'DM Sans', system-ui, sans-serif" font-size="22" font-weight="700" fill="#1A56DB" letter-spacing="-0.3" dx="108">Desai</text>
</svg>
